<svg width="66" height="30" viewBox="0 0 66 30" fill="none" xmlns="http://www.w3.org/2000/svg">
<path d="M6.20634 23.0564C7.24572 23.0564 8.16518 22.8665 8.96471 22.4867C9.76424 22.087 10.3739 21.4873 10.7936 20.6878V22.6966H14.9912V6.32627H10.4938V15.8906C10.4938 16.8301 10.214 17.5896 9.6543 18.1693C9.09463 18.7289 8.37506 19.0088 7.49558 19.0088C6.61609 19.0088 5.89652 18.7289 5.33685 18.1693C4.77718 17.5896 4.49735 16.8301 4.49735 15.8906V6.32627H0V16.2504C0 18.2892 0.529687 19.9382 1.58906 21.1975C2.66842 22.4368 4.20752 23.0564 6.20634 23.0564Z" fill="white"/>
<path d="M18.2782 4.85713H22.7755V0.359787H18.2782V4.85713ZM18.2782 22.6966H22.7755V6.32627H18.2782V22.6966Z" fill="white"/>
<path d="M28.0454 22.6966H32.5427V10.224H36.0507V6.32627H32.5427V6.08641C32.5427 4.62727 33.3922 3.8977 35.0912 3.8977C35.3711 3.8977 35.7009 3.92768 36.0807 3.98765V0.149911C35.6209 0.0499704 35.0912 0 34.4916 0C32.4528 0 30.8637 0.529687 29.7244 1.58906C28.6051 2.64844 28.0454 4.14755 28.0454 6.08641V6.32627H25.287V10.224H28.0454V22.6966Z" fill="white"/>
<path d="M38.364 22.6966H42.8613V13.8818C42.8613 12.6625 43.2011 11.7231 43.8807 11.0635C44.5603 10.3839 45.4498 10.0441 46.5492 10.0441H47.9583V6.14637H46.9989C45.9995 6.14637 45.11 6.33626 44.3305 6.71603C43.5709 7.07582 42.9813 7.76542 42.5615 8.78481V6.32627H38.364V22.6966Z" fill="white"/>
<path d="M52.4779 29.3527C55.4762 29.3527 57.6449 27.6437 58.9841 24.2257L65.9999 6.32627H61.1728L57.3051 16.8501L53.4374 6.32627H48.6102L55.0564 22.6966L54.7566 23.3862C54.5167 23.9259 54.2069 24.4056 53.8271 24.8253C53.4474 25.2451 52.8177 25.455 51.9382 25.455C51.2187 25.455 50.5391 25.355 49.8994 25.1552V28.843C50.2392 29.0229 50.629 29.1528 51.0688 29.2327C51.5285 29.3127 51.9982 29.3527 52.4779 29.3527Z" fill="white"/>
</svg>
