<svg width="42" height="51" viewBox="0 0 42 51" fill="none" xmlns="http://www.w3.org/2000/svg">
<path d="M35.6174 16.3279C35.2644 15.9978 34.7691 15.8478 34.2844 15.9245C33.7988 16.0009 33.3795 16.2942 33.1543 16.7152C32.3795 18.1634 31.3955 19.4943 30.2378 20.6708C30.3532 19.8209 30.4113 18.966 30.4113 18.1087C30.4113 16.4639 30.1822 14.7712 29.7301 13.0771C28.2439 7.51284 24.3465 2.80717 19.0377 0.166808C18.5755 -0.0629917 18.0247 -0.0549233 17.57 0.188324C17.1153 0.431671 16.8174 0.877823 16.7767 1.37687C16.3628 6.43346 13.6561 11.0338 9.34637 14.0014C9.28933 14.041 9.23271 14.081 9.17608 14.1209C9.0588 14.2034 8.94824 14.2815 8.84494 14.3471C8.82879 14.3574 8.81274 14.368 8.79701 14.3788C6.08654 16.2462 3.85008 18.7355 2.32911 21.5782C0.783617 24.4698 0 27.5728 0 30.8006C0 32.445 0.229081 34.1377 0.680929 35.832C3.06542 44.7627 11.4175 51.0001 20.9917 51.0001C32.566 51.0001 41.9822 41.9386 41.9822 30.8006C41.9822 25.3081 39.7218 20.1683 35.6174 16.3279Z" fill="url(#paint0_linear_1_1226)"/>
<defs>
<linearGradient id="paint0_linear_1_1226" x1="20.9911" y1="0" x2="20.9911" y2="51.0001" gradientUnits="userSpaceOnUse">
<stop stop-color="#CE9FFC"/>
<stop offset="0.505208" stop-color="#A582F7"/>
<stop offset="1" stop-color="#7367F0"/>
</linearGradient>
</defs>
</svg>
