<svg width="103" height="44" viewBox="0 0 103 44" fill="none" xmlns="http://www.w3.org/2000/svg">
<path d="M9.6682 34.5617C11.2873 34.5617 12.7197 34.2771 13.9652 33.7078C15.2107 33.1086 16.1604 32.2097 16.8143 31.0112V34.0224H23.3531V9.48313H16.3472V23.8202C16.3472 25.2284 15.9113 26.367 15.0394 27.2359C14.1676 28.0749 13.0466 28.4943 11.6766 28.4943C10.3065 28.4943 9.18556 28.0749 8.31371 27.2359C7.44186 26.367 7.00594 25.2284 7.00594 23.8202V9.48313H0V24.3595C0 27.4157 0.825144 29.8876 2.47543 31.7752C4.15686 33.6329 6.55445 34.5617 9.6682 34.5617Z" fill="white"/>
<path d="M28.4737 7.28089H35.4796V0.539323H28.4737V7.28089ZM28.4737 34.0224H35.4796V9.48313H28.4737V34.0224Z" fill="white"/>
<path d="M43.689 34.0224H50.6949V15.3258H56.1595V9.48313H50.6949V9.12358C50.6949 6.93632 52.0182 5.84269 54.6649 5.84269C55.1009 5.84269 55.6146 5.88763 56.2062 5.97752V0.224719C55.4901 0.0749062 54.6649 0 53.7308 0C50.5548 0 48.0794 0.794006 46.3045 2.38202C44.5608 3.97003 43.689 6.21722 43.689 9.12358V9.48313H39.392V15.3258H43.689V34.0224Z" fill="white"/>
<path d="M59.7632 34.0224H66.7692V20.809C66.7692 18.9812 67.2985 17.573 68.3572 16.5842C69.4158 15.5655 70.8015 15.0562 72.514 15.0562H74.7092V9.21347H73.2146C71.6577 9.21347 70.2721 9.49811 69.0578 10.0674C67.8745 10.6067 66.956 11.6404 66.3021 13.1685V9.48313H59.7632V34.0224Z" fill="white"/>
<path d="M81.7498 43.9999C86.4204 43.9999 89.7989 41.4381 91.8851 36.3146L102.814 9.48313H95.2946L89.2695 25.2584L83.2444 9.48313H75.7247L85.7666 34.0224L85.2995 35.0561C84.9258 35.8651 84.4432 36.5842 83.8516 37.2134C83.26 37.8426 82.2792 38.1573 80.9091 38.1573C79.7882 38.1573 78.7295 38.0074 77.7331 37.7078V43.2359C78.2624 43.5056 78.8696 43.7003 79.5546 43.8202C80.2708 43.94 81.0025 43.9999 81.7498 43.9999Z" fill="white"/>
</svg>
