<svg width="27" height="34" viewBox="0 0 27 34" fill="none" xmlns="http://www.w3.org/2000/svg">
<path d="M22.8489 10.8853C22.6224 10.6652 22.3047 10.5652 21.9938 10.6163C21.6823 10.6672 21.4132 10.8628 21.2687 11.1434C20.7718 12.1089 20.1405 12.9962 19.3978 13.7805C19.4718 13.2139 19.5091 12.644 19.5091 12.0725C19.5091 10.9759 19.3621 9.84746 19.0721 8.71808C18.1187 5.00855 15.6185 1.87144 12.2128 0.111205C11.9163 -0.0419944 11.563 -0.0366155 11.2713 0.125549C10.9796 0.28778 10.7885 0.585215 10.7624 0.917911C10.4969 4.28897 8.76048 7.35589 5.99578 9.33427C5.95919 9.36063 5.92286 9.38733 5.88654 9.41389C5.8113 9.46894 5.74038 9.521 5.6741 9.5647C5.66374 9.57161 5.65345 9.57864 5.64336 9.58588C3.90457 10.8308 2.46986 12.4903 1.49415 14.3855C0.502697 16.3132 0 18.3818 0 20.5337C0 21.63 0.146958 22.7584 0.436822 23.888C1.9665 29.8418 7.32444 34 13.4664 34C20.8914 34 26.932 27.959 26.932 20.5337C26.932 16.8721 25.4819 13.4455 22.8489 10.8853Z" fill="url(#paint0_linear_1_1183)"/>
<defs>
<linearGradient id="paint0_linear_1_1183" x1="13.466" y1="0" x2="13.466" y2="34" gradientUnits="userSpaceOnUse">
<stop stop-color="#CE9FFC"/>
<stop offset="0.505208" stop-color="#A582F7"/>
<stop offset="1" stop-color="#7367F0"/>
</linearGradient>
</defs>
</svg>
